<?xml version="1.0" encoding="UTF-8" standalone="no"?>
<!DOCTYPE svg PUBLIC "-//W3C//DTD SVG 1.1//EN"
 "http://www.w3.org/Graphics/SVG/1.1/DTD/svg11.dtd">
<!-- Generated by graphviz version 2.36.0 (20140111.2315)
 -->
<!-- Title: models_diagram Pages: 1 -->
<svg width="388pt" height="158pt"
 viewBox="0.00 0.00 388.00 158.00" xmlns="http://www.w3.org/2000/svg" xmlns:xlink="http://www.w3.org/1999/xlink">
<g id="graph0" class="graph" transform="scale(1 1) rotate(0) translate(4 154)">
<title>models_diagram</title>
<polygon fill="none" stroke="none" points="-4,4 -4,-154 384,-154 384,4 -4,4"/>
<!-- _diagram_info -->
<g id="node1" class="node"><title>_diagram_info</title>
<text text-anchor="start" x="7" y="-135.6" font-family="Times,serif" font-size="13.00">Models diagram</text>
<text text-anchor="start" x="7" y="-121.6" font-family="Times,serif" font-size="13.00">Date: Jul 05 2016 &#45; 20:59</text>
<text text-anchor="start" x="7" y="-107.6" font-family="Times,serif" font-size="13.00">Migration version: 20160706011903</text>
<text text-anchor="start" x="7" y="-93.6" font-family="Times,serif" font-size="13.00">Generated by RailRoady 1.5.1</text>
<text text-anchor="start" x="7" y="-79.6" font-family="Times,serif" font-size="13.00">http://railroady.prestonlee.com</text>
</g>
<!-- Operation -->
<g id="node2" class="node"><title>Operation</title>
<ellipse fill="none" stroke="black" cx="277" cy="-111" rx="46.2191" ry="18"/>
<text text-anchor="middle" x="277" y="-107.3" font-family="Times,serif" font-size="14.00">Operation</text>
</g>
<!-- Trabajador -->
<g id="node3" class="node"><title>Trabajador</title>
<ellipse fill="none" stroke="black" cx="220" cy="-18" rx="49.0941" ry="18"/>
<text text-anchor="middle" x="220" y="-14.3" font-family="Times,serif" font-size="14.00">Trabajador</text>
</g>
<!-- Operation&#45;&gt;Trabajador -->
<g id="edge1" class="edge"><title>Operation&#45;&gt;Trabajador</title>
<path fill="none" stroke="#d8df9b" d="M262.219,-86.4028C254.164,-73.5426 244.188,-57.6164 235.957,-44.4746"/>
<ellipse fill="none" stroke="#d8df9b" cx="264.422" cy="-89.9193" rx="4.00002" ry="4.00002"/>
<polygon fill="#d8df9b" stroke="#d8df9b" points="235.89,-44.3679 234.395,-33.5044 233.236,-40.1305 230.581,-35.8932 230.581,-35.8932 230.581,-35.8932 233.236,-40.1305 226.768,-38.2819 235.89,-44.3679 235.89,-44.3679"/>
</g>
<!-- Inventario -->
<g id="node4" class="node"><title>Inventario</title>
<ellipse fill="none" stroke="black" cx="334" cy="-18" rx="46.1964" ry="18"/>
<text text-anchor="middle" x="334" y="-14.3" font-family="Times,serif" font-size="14.00">Inventario</text>
</g>
<!-- Operation&#45;&gt;Inventario -->
<g id="edge2" class="edge"><title>Operation&#45;&gt;Inventario</title>
<path fill="none" stroke="#b86b80" d="M291.809,-86.3571C300.232,-72.9106 310.747,-56.1238 319.172,-42.6724"/>
<ellipse fill="none" stroke="#b86b80" cx="289.578" cy="-89.9193" rx="4.00002" ry="4.00002"/>
<ellipse fill="#b86b80" stroke="#b86b80" cx="321.488" cy="-38.9749" rx="4.00002" ry="4.00002"/>
</g>
</g>
</svg>
