<?xml version="1.0" encoding="UTF-8" standalone="no"?>
<!DOCTYPE svg PUBLIC "-//W3C//DTD SVG 1.1//EN"
 "http://www.w3.org/Graphics/SVG/1.1/DTD/svg11.dtd">
<!-- Generated by graphviz version 2.36.0 (20140111.2315)
 -->
<!-- Title: models_diagram Pages: 1 -->
<svg width="614pt" height="274pt"
 viewBox="0.00 0.00 614.00 274.00" xmlns="http://www.w3.org/2000/svg" xmlns:xlink="http://www.w3.org/1999/xlink">
<g id="graph0" class="graph" transform="scale(1 1) rotate(0) translate(4 270)">
<title>models_diagram</title>
<polygon fill="none" stroke="none" points="-4,4 -4,-270 610,-270 610,4 -4,4"/>
<!-- _diagram_info -->
<g id="node1" class="node"><title>_diagram_info</title>
<text text-anchor="start" x="7" y="-236.6" font-family="Times,serif" font-size="13.00">Models diagram</text>
<text text-anchor="start" x="7" y="-222.6" font-family="Times,serif" font-size="13.00">Date: Jul 05 2016 &#45; 20:59</text>
<text text-anchor="start" x="7" y="-208.6" font-family="Times,serif" font-size="13.00">Migration version: 20160706011903</text>
<text text-anchor="start" x="7" y="-194.6" font-family="Times,serif" font-size="13.00">Generated by RailRoady 1.5.1</text>
<text text-anchor="start" x="7" y="-180.6" font-family="Times,serif" font-size="13.00">http://railroady.prestonlee.com</text>
</g>
<!-- Operation -->
<g id="node2" class="node"><title>Operation</title>
<path fill="none" stroke="black" d="M243,-159C243,-159 463,-159 463,-159 469,-159 475,-165 475,-171 475,-171 475,-253 475,-253 475,-259 469,-265 463,-265 463,-265 243,-265 243,-265 237,-265 231,-259 231,-253 231,-253 231,-171 231,-171 231,-165 237,-159 243,-159"/>
<text text-anchor="middle" x="353" y="-249.8" font-family="Times,serif" font-size="14.00">Operation</text>
<polyline fill="none" stroke="black" points="231,-242 475,-242 "/>
<text text-anchor="start" x="239" y="-226.8" font-family="Times,serif" font-size="14.00">id :integer</text>
<text text-anchor="start" x="239" y="-211.8" font-family="Times,serif" font-size="14.00">name :character varying</text>
<text text-anchor="start" x="239" y="-196.8" font-family="Times,serif" font-size="14.00">description :character varying</text>
<text text-anchor="start" x="239" y="-181.8" font-family="Times,serif" font-size="14.00">created_at :timestamp without time zone</text>
<text text-anchor="start" x="239" y="-166.8" font-family="Times,serif" font-size="14.00">updated_at :timestamp without time zone</text>
</g>
<!-- Trabajador -->
<g id="node3" class="node"><title>Trabajador</title>
<path fill="none" stroke="black" d="M112,-8C112,-8 332,-8 332,-8 338,-8 344,-14 344,-20 344,-20 344,-102 344,-102 344,-108 338,-114 332,-114 332,-114 112,-114 112,-114 106,-114 100,-108 100,-102 100,-102 100,-20 100,-20 100,-14 106,-8 112,-8"/>
<text text-anchor="middle" x="222" y="-98.8" font-family="Times,serif" font-size="14.00">Trabajador</text>
<polyline fill="none" stroke="black" points="100,-91 344,-91 "/>
<text text-anchor="start" x="108" y="-75.8" font-family="Times,serif" font-size="14.00">id :integer</text>
<text text-anchor="start" x="108" y="-60.8" font-family="Times,serif" font-size="14.00">name :character varying</text>
<text text-anchor="start" x="108" y="-45.8" font-family="Times,serif" font-size="14.00">mail :character varying</text>
<text text-anchor="start" x="108" y="-30.8" font-family="Times,serif" font-size="14.00">created_at :timestamp without time zone</text>
<text text-anchor="start" x="108" y="-15.8" font-family="Times,serif" font-size="14.00">updated_at :timestamp without time zone</text>
</g>
<!-- Operation&#45;&gt;Trabajador -->
<g id="edge1" class="edge"><title>Operation&#45;&gt;Trabajador</title>
<path fill="none" stroke="#07a8eb" d="M301.738,-152.695C292.815,-142.546 283.522,-131.975 274.564,-121.787"/>
<ellipse fill="none" stroke="#07a8eb" cx="304.541" cy="-155.883" rx="4.00002" ry="4.00002"/>
<polygon fill="#07a8eb" stroke="#07a8eb" points="274.394,-121.594 271.171,-111.112 271.093,-117.839 267.792,-114.084 267.792,-114.084 267.792,-114.084 271.093,-117.839 264.412,-117.055 274.394,-121.594 274.394,-121.594"/>
</g>
<!-- Inventario -->
<g id="node4" class="node"><title>Inventario</title>
<path fill="none" stroke="black" d="M374,-0.5C374,-0.5 594,-0.5 594,-0.5 600,-0.5 606,-6.5 606,-12.5 606,-12.5 606,-109.5 606,-109.5 606,-115.5 600,-121.5 594,-121.5 594,-121.5 374,-121.5 374,-121.5 368,-121.5 362,-115.5 362,-109.5 362,-109.5 362,-12.5 362,-12.5 362,-6.5 368,-0.5 374,-0.5"/>
<text text-anchor="middle" x="484" y="-106.3" font-family="Times,serif" font-size="14.00">Inventario</text>
<polyline fill="none" stroke="black" points="362,-98.5 606,-98.5 "/>
<text text-anchor="start" x="370" y="-83.3" font-family="Times,serif" font-size="14.00">id :integer</text>
<text text-anchor="start" x="370" y="-68.3" font-family="Times,serif" font-size="14.00">NumSerie :character varying</text>
<text text-anchor="start" x="370" y="-53.3" font-family="Times,serif" font-size="14.00">wheelSize :integer</text>
<text text-anchor="start" x="370" y="-38.3" font-family="Times,serif" font-size="14.00">description :character varying</text>
<text text-anchor="start" x="370" y="-23.3" font-family="Times,serif" font-size="14.00">created_at :timestamp without time zone</text>
<text text-anchor="start" x="370" y="-8.3" font-family="Times,serif" font-size="14.00">updated_at :timestamp without time zone</text>
</g>
<!-- Operation&#45;&gt;Inventario -->
<g id="edge2" class="edge"><title>Operation&#45;&gt;Inventario</title>
<path fill="none" stroke="#94f856" d="M404.318,-152.631C411.427,-144.545 418.77,-136.193 425.99,-127.981"/>
<ellipse fill="none" stroke="#94f856" cx="401.459" cy="-155.883" rx="4.00002" ry="4.00002"/>
<ellipse fill="#94f856" stroke="#94f856" cx="428.84" cy="-124.739" rx="4.00002" ry="4.00002"/>
</g>
</g>
</svg>
